<?xml version="1.0" encoding="UTF-8" standalone="no"?><!DOCTYPE svg PUBLIC "-//W3C//DTD SVG 1.1//EN" "http://www.w3.org/Graphics/SVG/1.1/DTD/svg11.dtd"><svg width="100%" height="100%" viewBox="0 0 112 135" version="1.1" xmlns="http://www.w3.org/2000/svg" xmlns:xlink="http://www.w3.org/1999/xlink" xml:space="preserve" style="fill-rule:evenodd;clip-rule:evenodd;stroke-linejoin:round;stroke-miterlimit:1.41421;"><path d="M70.682,112.226l-14.658,0l0,-96.206c0,-3.116 -3.17,-5.22 -6.476,-5.22c-3.47,0 -6.665,2.086 -6.665,5.22l0,96.206l-14.658,0l0,-96.206c0,-3.116 -3.17,-5.22 -6.477,-5.22c-3.469,0 -6.664,2.086 -6.664,5.22l0,96.206l-14.658,0l0,-97.94c0,-7.716 8.28,-14.286 18.881,-14.286c6.525,0 12.062,2.372 15.407,5.893l0.746,0.32l0.188,0l0.728,-0.301c3.546,-3.546 9.098,-5.912 15.426,-5.912c10.78,0 18.88,6.565 18.88,14.286l0,97.94Z" style="fill:#f49f23;"/><path d="M95.473,112.234l-14.295,0l0,-108.058l30.65,0l0,10.425l-16.355,0l0,36.848l16.355,0l0,10.426l-16.355,0l0,50.359Z" style="fill:#f49f25;"/><rect x="0" y="120.05" width="111.828" height="14.035" style="fill:#58585a;"/></svg>