<svg clip-rule="evenodd" fill-rule="evenodd" stroke-linejoin="round" stroke-miterlimit="2" viewBox="0 0 750 750" xmlns="http://www.w3.org/2000/svg"><path d="m264 480c-127.271 0-232-104.729-232-232 0-94 54-178.28 137.61-214.67 2.017-.879 4.193-1.332 6.392-1.332 8.778 0 16 7.222 16 16 0 2.199-.453 4.375-1.332 6.392-9.6 22.04-14.67 50.27-14.67 81.61 0 110.28 89.72 200 200 200 31.34 0 59.57-5.07 81.61-14.67 2.017-.879 4.193-1.332 6.392-1.332 8.778 0 16 7.222 16 16 0 2.199-.453 4.375-1.332 6.392-36.39 83.61-120.67 137.61-214.67 137.61z" fill="#fff" fill-rule="nonzero" transform="matrix(-1 0 0 1 631.002 119)"/></svg>